<?xml version="1.0" encoding="UTF-8" standalone="no"?>
<!-- Created with Inkscape (http://www.inkscape.org/) -->

<svg
   xmlns:dc="http://purl.org/dc/elements/1.1/"
   xmlns:cc="http://creativecommons.org/ns#"
   xmlns:rdf="http://www.w3.org/1999/02/22-rdf-syntax-ns#"
   xmlns:svg="http://www.w3.org/2000/svg"
   xmlns="http://www.w3.org/2000/svg"
   xmlns:sodipodi="http://sodipodi.sourceforge.net/DTD/sodipodi-0.dtd"
   xmlns:inkscape="http://www.inkscape.org/namespaces/inkscape"
   id="svg2999"
   version="1.1"
   inkscape:version="0.48.4 r9939"
   width="103"
   height="89"
   sodipodi:docname="logo2.png">
  <metadata
     id="metadata3005">
    <rdf:RDF>
      <cc:Work
         rdf:about="">
        <dc:format>image/svg+xml</dc:format>
        <dc:type
           rdf:resource="http://purl.org/dc/dcmitype/StillImage" />
        <dc:title></dc:title>
      </cc:Work>
    </rdf:RDF>
  </metadata>
  <defs
     id="defs3003" />
  <sodipodi:namedview
     pagecolor="#ffffff"
     bordercolor="#666666"
     borderopacity="1"
     objecttolerance="10"
     gridtolerance="10"
     guidetolerance="10"
     inkscape:pageopacity="0"
     inkscape:pageshadow="2"
     inkscape:window-width="1366"
     inkscape:window-height="705"
     id="namedview3001"
     showgrid="false"
     inkscape:zoom="2.6516854"
     inkscape:cx="51.5"
     inkscape:cy="44.5"
     inkscape:window-x="-4"
     inkscape:window-y="-4"
     inkscape:window-maximized="1"
     inkscape:current-layer="svg2999" />
  <path
     style="fill:#333333"
     d="M 59.18741,76.181809 C 58.319655,75.473551 55.433503,69.837529 52.773739,63.657315 48.066429,52.719431 47.842611,52.405378 44.358733,51.8497 c -1.96849,-0.313974 -4.591572,-0.778509 -5.829072,-1.032299 -2.193368,-0.449823 -2.25,-0.247013 -2.25,8.057615 l 0,8.519052 3.5,0 c 3.338976,0 3.5,0.162399 3.5,3.529877 l 0,3.529877 -12.737736,-0.279877 C 18.81569,73.916293 17.774416,73.738878 17.429257,71.939772 c -0.239326,-1.247463 0.660442,-2.779851 2.487736,-4.236846 l 2.862668,-2.28255 0.356697,-22.99561 0.356696,-22.995611 3.643304,-1.052097 c 6.101196,-1.761876 19.59687,-3.336952 22.451984,-2.620364 2.450064,0.614927 2.691319,1.102034 2.691319,5.43392 0,6.268674 -2.072708,9.203454 -6.5,9.203454 -2.322598,0 -3.855639,-0.669659 -4.879525,-2.13146 -0.910774,-1.300313 -2.102714,-1.897465 -3.056704,-1.531385 -1.216972,0.466996 -1.563771,2.188633 -1.563771,7.763129 l 0,7.163054 4.25,-0.559056 c 5.453409,-0.717357 9.602231,-5.213769 15.75482,-17.074769 3.585932,-6.912982 4.899724,-8.611595 6.49518,-8.397675 1.950423,0.261515 2,1.024216 2,30.768162 0,29.77452 -0.04774,30.506844 -2.007257,30.787741 -1.103991,0.158257 -2.717238,-0.291743 -3.584994,-1 z m 3.078185,-29.537741 -0.01406,-27.75 -4.074358,7.5 C 50.642193,40.264312 47.948516,42.787718 39.492255,43.897884 l -5.287406,0.694149 0.287406,-9.767922 0.287406,-9.767921 2.912195,-0.96846 c 2.559822,-0.851276 3.144662,-0.649335 4.833407,1.66894 1.056666,1.450569 2.533161,2.637398 3.281101,2.637398 1.986406,0 4.473297,-4.01529 4.473297,-7.222506 0,-2.703182 -0.148561,-2.777494 -5.552595,-2.777494 -3.053927,0 -8.678927,0.711069 -12.5,1.580154 l -6.947405,1.580154 0,22.467595 0,22.467595 -2.5,2.316922 c -1.375,1.274307 -2.5,2.60282 -2.5,2.952251 0,0.349431 4.725,0.635329 10.5,0.635329 8.666667,0 10.5,-0.261905 10.5,-1.5 0,-1.047619 -1.055556,-1.5 -3.5,-1.5 l -3.5,0 0,-10.638095 0,-10.638095 6.75,0.682937 c 4.32698,0.437785 7.341053,1.29503 8.396544,2.388094 1.387542,1.436936 6.792575,12.83939 9.933242,20.955159 2.375138,6.137572 2.919762,1.358764 2.906148,-25.5 z m 17.395742,17.801176 c -8.552196,-3.074229 -9.381676,-3.744977 -9.381676,-7.58636 0,-3.119921 0.273741,-3.462029 2.75,-3.436813 3.468854,0.03532 15.419764,5.321387 16.744885,7.406511 1.274781,2.005912 -0.482868,4.991695 -3.097013,5.261007 -1.043829,0.107537 -4.201118,-0.632418 -7.016196,-1.644345 z m 7.618324,-1.977869 c 0,-0.879224 -8.333373,-5.092177 -13.006012,-6.575215 -1.757657,-0.557859 -2.109356,-0.335664 -1.822919,1.151679 0.563928,2.928243 14.828931,8.145528 14.828931,5.423536 z m -17.5,-15.073307 c -1.383471,-4.35893 0.207401,-5.802052 8.299214,-7.528435 4.235432,-0.903626 8.465267,-1.852413 9.399634,-2.108414 2.32717,-0.637606 5.996529,3.25122 5.612645,5.948342 -0.26662,1.873237 -1.463951,2.428467 -8.311493,3.854232 -11.19842,2.331687 -14.217941,2.298326 -15,-0.165725 z m 19.862868,-3.977329 c 1.811461,-1.781102 -0.566915,-3.206878 -4.227389,-2.534213 -11.309991,2.078375 -13.135479,2.696424 -13.135479,4.447236 0,1.664789 0.490241,1.685746 8.25,0.352674 4.5375,-0.77951 8.63829,-1.799074 9.112868,-2.265697 z M 70.742916,31.278296 c -0.533632,-1.681326 0.53055,-3.33214 5.182613,-8.039537 6.190768,-6.264406 9.429788,-7.856718 11.867118,-5.833914 2.772199,2.300721 1.504655,4.747872 -5.374305,10.375764 -7.316244,5.985647 -10.575848,6.962149 -11.675426,3.497687 z m 12.536745,-7.786099 c 3.557798,-3.17265 4.087828,-4.021781 2.531445,-4.055492 -1.082705,-0.02345 -4.345205,2.304491 -7.25,5.173203 -9.088432,8.975536 -5.699866,8.172868 4.718555,-1.117711 z"
     id="path3009"
     inkscape:connector-curvature="0" />
</svg>
