<?xml version="1.0" ?><svg height="475.817" id="svg1931" width="169.3" xmlns="http://www.w3.org/2000/svg" xmlns:cc="http://web.resource.org/cc/" xmlns:dc="http://purl.org/dc/elements/1.1/" xmlns:inkscape="http://www.inkscape.org/namespaces/inkscape" xmlns:rdf="http://www.w3.org/1999/02/22-rdf-syntax-ns#" xmlns:sodipodi="http://inkscape.sourceforge.net/DTD/sodipodi-0.dtd" xmlns:svg="http://www.w3.org/2000/svg"><defs id="defs1933"><marker id="ArrowEnd" markerHeight="3" markerUnits="strokeWidth" markerWidth="4" orient="auto" refX="0" refY="5" viewBox="0 0 10 10"><path d="M 0 0 L 10 5 L 0 10 z" id="path1936"/></marker><marker id="ArrowStart" markerHeight="3" markerUnits="strokeWidth" markerWidth="4" orient="auto" refX="10" refY="5" viewBox="0 0 10 10"><path d="M 10 0 L 0 5 L 10 10 z" id="path1939"/></marker></defs><g id="g1941"><path d="M 106.182 0C 83.8033 2.504 2.42665 39.697 0.0532532 231.479C -2.44675 433.504 83.8033 476.004 106.423 475.546L 106.423 342.11C 87.8033 342.11 84.0574 321.836 79.8033 280.004C 76.9883 252.325 76.1674 218.061 79.8033 184.004C 82.3553 160.107 86.8033 136.781 106.303 136.781L 106.182 0z" id="path1943" style="stroke:none; fill:#000000"/><path d="M 154.428 475.781C 163.053 475.781 169.239 468.754 169.239 460.879L 169.3 460.817C 169.3 460.817 169.239 356.817 169.239 356.754C 169.239 348.504 162.553 342 154.428 342L 116.628 342L 116.628 475.781C 116.628 475.781 154.335 475.839 154.366 475.808L 154.428 475.781z" id="path1945" style="stroke:none; fill:#000000"/><path d="M 154.428 136.781C 163.053 136.781 169.239 129.754 169.239 121.879L 169.3 121.817C 169.3 121.817 169.239 14.817 169.239 14.754C 169.239 6.504 162.553 0 154.428 0L 116.628 0L 116.628 136.781C 116.628 136.781 154.335 136.839 154.366 136.808L 154.428 136.781z" id="path1947" style="stroke:none; fill:#000000"/></g></svg>